<svg xmlns="http://www.w3.org/2000/svg" xmlns:xlink="http://www.w3.org/1999/xlink" viewBox="0 0 591.64 591.64"><defs><style>.cls-1,.cls-14,.cls-17{fill:none;}.cls-2{fill:url(#Degradado_sin_nombre_15);}.cls-3{fill:url(#Degradado_sin_nombre_15-2);}.cls-4{fill:#484848;}.cls-5{fill:#364f58;}.cls-6{fill:#fff;}.cls-7{fill:#5a5a5a;}.cls-8{fill:#414141;}.cls-9{fill:#dce1e2;}.cls-10{fill:#eaeaea;}.cls-10,.cls-12,.cls-16,.cls-17,.cls-18,.cls-19,.cls-20{stroke:#2c2f3f;}.cls-10,.cls-12,.cls-14,.cls-16,.cls-17,.cls-18,.cls-19,.cls-20{stroke-miterlimit:10;}.cls-10,.cls-12,.cls-14,.cls-18,.cls-19,.cls-20{stroke-width:1.51px;}.cls-11{opacity:0.71;}.cls-12{fill:url(#Degradado_sin_nombre_21);}.cls-13{fill:url(#Degradado_sin_nombre_23);}.cls-14{stroke:#087ebf;}.cls-15{opacity:0.3;}.cls-16{fill:#bcb2cc;}.cls-16,.cls-17{stroke-width:1.19px;}.cls-18{fill:url(#Degradado_sin_nombre_38);}.cls-19{fill:url(#Degradado_sin_nombre_38-2);}.cls-20{fill:#b0becc;}.cls-21{opacity:0.63;}.cls-22{clip-path:url(#clip-path);}</style><linearGradient id="Degradado_sin_nombre_15" x1="-644.73" y1="-1650.77" x2="388.72" y2="-1650.77" gradientTransform="translate(399.27 1996.66) scale(0.81 1.03)" gradientUnits="userSpaceOnUse"><stop offset="0.02" stop-opacity="0"/><stop offset="0.51" stop-color="#1d1d1b"/><stop offset="1" stop-opacity="0"/></linearGradient><linearGradient id="Degradado_sin_nombre_15-2" x1="-515.55" y1="-1718.83" x2="252.91" y2="-1718.83" gradientTransform="translate(350.46 2019.09) scale(0.81 1.03)" xlink:href="#Degradado_sin_nombre_15"/><linearGradient id="Degradado_sin_nombre_21" x1="94.2" y1="367.6" x2="504.21" y2="367.6" gradientUnits="userSpaceOnUse"><stop offset="0" stop-color="#374f58"/><stop offset="1" stop-color="#525252"/></linearGradient><linearGradient id="Degradado_sin_nombre_23" x1="319.92" y1="413.19" x2="276.01" y2="317.19" gradientUnits="userSpaceOnUse"><stop offset="0" stop-opacity="0.3"/><stop offset="0.62" stop-opacity="0"/></linearGradient><linearGradient id="Degradado_sin_nombre_38" x1="218.74" y1="331.9" x2="223.72" y2="341.51" gradientUnits="userSpaceOnUse"><stop offset="0" stop-color="#2b444e"/><stop offset="1" stop-color="#3c3c3c"/></linearGradient><linearGradient id="Degradado_sin_nombre_38-2" x1="423.36" y1="311.96" x2="420.29" y2="319.45" xlink:href="#Degradado_sin_nombre_38"/><clipPath id="clip-path"><path class="cls-1" d="M350.54,419.57l-95.9,42.69L139,408.49s21.67-208.23,31.67-222.23,38-14,53,3,83,118,96,136S350.54,419.57,350.54,419.57Z"/></clipPath></defs><g id="Capa_2" data-name="Capa 2"><g id="Capa_1-2" data-name="Capa 1"><rect class="cls-2" x="-121.75" y="295.04" width="835.15" height="1.56" transform="translate(-122.53 295.82) rotate(-45)"/><rect class="cls-3" x="-66.17" y="247.34" width="621.01" height="1.56" transform="translate(-103.89 245.45) rotate(-45)"/><circle class="cls-4" cx="160.69" cy="365" r="129.75"/><circle class="cls-5" cx="295.99" cy="246.88" r="156.34"/><circle class="cls-6" cx="344.95" cy="160.62" r="1.51"/><circle class="cls-6" cx="284.02" cy="169.29" r="1.51"/><circle class="cls-6" cx="357.03" cy="160.74" r="1.51"/><circle class="cls-6" cx="372.76" cy="233.72" r="1.51"/><circle class="cls-6" cx="353.5" cy="188.28" r="3.03"/><circle class="cls-6" cx="313.59" cy="152.87" r="3.03"/><circle class="cls-6" cx="192.67" cy="155.48" r="3.03"/><circle class="cls-6" cx="131.39" cy="484.65" r="3.03"/><circle class="cls-6" cx="117.68" cy="253.34" r="3.03"/><circle class="cls-6" cx="236.66" cy="129.52" r="1.51"/><circle class="cls-6" cx="222.36" cy="213.97" r="1.51"/><circle class="cls-6" cx="188.19" cy="182.55" r="1.51"/><circle class="cls-6" cx="79.56" cy="278.71" r="1.51"/><circle class="cls-6" cx="45.53" cy="371.65" r="1.51"/><circle class="cls-6" cx="152.21" cy="482.45" r="1.51"/><circle class="cls-6" cx="54.67" cy="441.74" r="1.51"/><circle class="cls-6" cx="37.92" cy="346.73" r="1.51"/><circle class="cls-6" cx="123.49" cy="280.14" r="1.51"/><circle class="cls-6" cx="97.41" cy="465.54" r="1.51"/><circle class="cls-6" cx="74.82" cy="359.09" r="1.51"/><circle class="cls-7" cx="305.52" cy="229.75" r="24.56"/><circle class="cls-7" cx="225.74" cy="246.32" r="17.69"/><circle class="cls-7" cx="261.42" cy="235.88" r="28.17"/><circle class="cls-8" cx="304.09" cy="240.09" r="24.56"/><circle class="cls-8" cx="224.31" cy="256.65" r="17.69"/><circle class="cls-8" cx="259.99" cy="246.21" r="28.17"/><circle class="cls-6" cx="331.25" cy="265.41" r="28.17"/><circle class="cls-9" cx="329.81" cy="275.74" r="28.17"/><circle class="cls-6" cx="288.41" cy="282.91" r="28.17"/><circle class="cls-9" cx="286.98" cy="293.24" r="28.17"/><circle class="cls-6" cx="248.63" cy="281.42" r="19.69"/><circle class="cls-9" cx="247.63" cy="288.64" r="19.69"/><circle class="cls-6" cx="213.86" cy="266.91" r="19.69"/><circle class="cls-9" cx="212.85" cy="274.13" r="19.69"/><circle class="cls-6" cx="294.93" cy="254.57" r="24.56"/><circle class="cls-6" cx="215.16" cy="271.14" r="17.69"/><circle class="cls-6" cx="250.83" cy="260.7" r="28.17"/><circle class="cls-9" cx="293.5" cy="264.9" r="24.56"/><circle class="cls-9" cx="213.72" cy="281.47" r="17.69"/><circle class="cls-9" cx="249.4" cy="271.03" r="28.17"/><circle class="cls-6" cx="320.66" cy="290.22" r="28.17"/><circle class="cls-9" cx="319.22" cy="300.55" r="28.17"/><circle class="cls-6" cx="277.82" cy="307.72" r="28.17"/><circle class="cls-9" cx="276.39" cy="318.05" r="28.17"/><circle class="cls-6" cx="238.04" cy="306.23" r="19.69"/><circle class="cls-9" cx="237.04" cy="313.45" r="19.69"/><circle class="cls-6" cx="203.27" cy="291.73" r="19.69"/><circle class="cls-9" cx="202.26" cy="298.95" r="19.69"/><circle class="cls-7" cx="421.52" cy="211.75" r="24.56"/><circle class="cls-7" cx="341.74" cy="228.32" r="17.69"/><circle class="cls-7" cx="377.42" cy="217.88" r="28.17"/><circle class="cls-8" cx="420.09" cy="222.09" r="24.56"/><circle class="cls-8" cx="340.31" cy="238.65" r="17.69"/><circle class="cls-8" cx="375.99" cy="228.21" r="28.17"/><circle class="cls-6" cx="447.25" cy="247.41" r="28.17"/><circle class="cls-9" cx="445.81" cy="257.74" r="28.17"/><circle class="cls-6" cx="404.41" cy="264.91" r="28.17"/><circle class="cls-9" cx="402.98" cy="275.24" r="28.17"/><circle class="cls-6" cx="364.63" cy="263.42" r="19.69"/><circle class="cls-9" cx="363.63" cy="270.64" r="19.69"/><circle class="cls-6" cx="329.86" cy="248.91" r="19.69"/><circle class="cls-9" cx="328.85" cy="256.13" r="19.69"/><circle class="cls-6" cx="410.93" cy="236.57" r="24.56"/><circle class="cls-6" cx="331.16" cy="253.14" r="17.69"/><circle class="cls-6" cx="366.83" cy="242.7" r="28.17"/><circle class="cls-9" cx="409.5" cy="246.9" r="24.56"/><circle class="cls-9" cx="329.72" cy="263.47" r="17.69"/><circle class="cls-9" cx="365.4" cy="253.03" r="28.17"/><circle class="cls-6" cx="436.66" cy="272.22" r="28.17"/><circle class="cls-9" cx="435.22" cy="282.55" r="28.17"/><circle class="cls-6" cx="393.82" cy="289.72" r="28.17"/><circle class="cls-9" cx="392.39" cy="300.05" r="28.17"/><circle class="cls-6" cx="354.04" cy="288.23" r="19.69"/><circle class="cls-9" cx="353.04" cy="295.45" r="19.69"/><circle class="cls-6" cx="319.27" cy="273.73" r="19.69"/><circle class="cls-9" cx="318.26" cy="280.95" r="19.69"/><circle class="cls-6" cx="161.75" cy="288.6" r="32.02"/><circle class="cls-6" cx="62.53" cy="326.55" r="23.06"/><circle class="cls-6" cx="106.27" cy="305.68" r="36.72"/><circle class="cls-9" cx="162.06" cy="302.2" r="32.02"/><circle class="cls-9" cx="145.28" cy="339.71" r="32.02"/><circle class="cls-9" cx="195.62" cy="333.79" r="32.02"/><circle class="cls-9" cx="104.81" cy="363.4" r="32.02"/><circle class="cls-9" cx="62.84" cy="340.14" r="23.06"/><circle class="cls-9" cx="106.58" cy="319.28" r="36.72"/><path class="cls-10" d="M562.52,349.81,345.89,254.92a5.69,5.69,0,0,0-4.74,0L218.32,308.74h0L2,403.09c-.93.9-1.15,2.47-.95,4.21.38,3.23,2.22,9.05,3.67,10.25a2,2,0,0,0,.43.29l208,95.73.24.11h0c.45.21.92.38,1.39.55l.48.15c.31.1.63.19,1,.26s.38.1.57.13.66.12,1,.16a3.85,3.85,0,0,0,.49.07h0a15.56,15.56,0,0,0,8-1.31L559.52,361.46C561.65,359.41,563.08,354.84,562.52,349.81Z"/><g class="cls-11"><path class="cls-10" d="M2,403.09c-2.85,2.75,1,13.73,3.15,14.75l208.27,95.84a15.63,15.63,0,0,0,4.88,1.34V308.74Z"/></g><g class="cls-11"><path class="cls-10" d="M2,403.09c-2.85,2.75,1,13.73,3.15,14.75l208.27,95.84a15.63,15.63,0,0,0,4.88,1.34V308.74Z"/></g><path class="cls-10" d="M339.26,248.83,2.52,402.43a2.83,2.83,0,0,0,0,5.15l210.93,97.16a15.46,15.46,0,0,0,12.87,0L560.88,352.16a2.83,2.83,0,0,0,0-5.15L347.78,248.84A10.26,10.26,0,0,0,339.26,248.83Z"/><path class="cls-12" d="M342.73,274.22,94.2,387.85v-1L196.69,434l51.24,23.58,6.41,2.95a5.4,5.4,0,0,0,.73.31,2.13,2.13,0,0,0,.67.09,2.23,2.23,0,0,0,.67-.14l.77-.34,3.2-1.47,12.84-5.84,25.66-11.69L504.21,348v.87Z"/><path class="cls-13" d="M342.73,274.22,94.2,387.85v-1L196.69,434l51.24,23.58,6.41,2.95a5.4,5.4,0,0,0,.73.31,2.13,2.13,0,0,0,.67.09,2.23,2.23,0,0,0,.67-.14l.77-.34,3.2-1.47,12.84-5.84,25.66-11.69L504.21,348v.87Z"/><circle class="cls-6" cx="360.06" cy="295.32" r="1.51"/><circle class="cls-6" cx="323.37" cy="318.03" r="3.03"/><circle class="cls-6" cx="292.32" cy="435.11" r="3.03"/><circle class="cls-6" cx="421.43" cy="334.07" r="3.03"/><circle class="cls-6" cx="289.71" cy="355.54" r="1.51"/><circle class="cls-6" cx="208.24" cy="386.31" r="1.51"/><circle class="cls-6" cx="242.47" cy="358.44" r="1.51"/><circle class="cls-6" cx="248.94" cy="385.45" r="3.03"/><circle class="cls-6" cx="330.54" cy="373.88" r="3.03"/><circle class="cls-6" cx="362.47" cy="334.01" r="1.51"/><circle class="cls-6" cx="266.41" cy="309.95" r="1.51"/><circle class="cls-6" cx="422.63" cy="363.59" r="1.51"/><circle class="cls-6" cx="385.4" cy="375.5" r="1.51"/><circle class="cls-6" cx="311.01" cy="425.67" r="1.51"/><circle class="cls-6" cx="205.38" cy="422.17" r="1.51"/><circle class="cls-6" cx="438.05" cy="329.26" r="1.51"/><circle class="cls-6" cx="154.36" cy="367.07" r="1.51"/><circle class="cls-6" cx="247.16" cy="445.69" r="1.51"/><circle class="cls-6" cx="194.93" cy="337.75" r="1.51"/><path class="cls-10" d="M120.68,421l-4.92-2.27a1.26,1.26,0,0,0-1,0l-12.37,5.65a1.25,1.25,0,0,0,0,2.27l4.92,2.27a1.26,1.26,0,0,0,1,0l12.38-5.65A1.25,1.25,0,0,0,120.68,421Z"/><path class="cls-10" d="M103,413.26,90.57,418.9a1.26,1.26,0,0,0,0,2.28l4.92,2.27a1.26,1.26,0,0,0,1,0l12.38-5.65a1.25,1.25,0,0,0,0-2.27L104,413.26A1.26,1.26,0,0,0,103,413.26Z"/><path class="cls-10" d="M91.18,407.84,78.8,413.48a1.25,1.25,0,0,0,0,2.28L83.72,418a1.22,1.22,0,0,0,1,0l12.37-5.64a1.25,1.25,0,0,0,0-2.28l-4.92-2.26A1.22,1.22,0,0,0,91.18,407.84Z"/><path class="cls-10" d="M79.4,402.41,67,408.06a1.25,1.25,0,0,0,0,2.27l4.92,2.27a1.28,1.28,0,0,0,1,0L85.36,407a1.25,1.25,0,0,0,0-2.28l-4.92-2.27A1.28,1.28,0,0,0,79.4,402.41Z"/><path class="cls-10" d="M209.56,467.63l-12.38,5.64a1.26,1.26,0,0,0,0,2.28l4.92,2.26a1.22,1.22,0,0,0,1,0l12.38-5.65a1.25,1.25,0,0,0,0-2.27l-4.92-2.27A1.26,1.26,0,0,0,209.56,467.63Z"/><path class="cls-10" d="M174.24,451.36,161.87,457a1.25,1.25,0,0,0,0,2.28l4.92,2.27a1.26,1.26,0,0,0,1,0l12.38-5.65a1.25,1.25,0,0,0,0-2.27l-4.92-2.27A1.28,1.28,0,0,0,174.24,451.36Z"/><path class="cls-10" d="M197.79,462.2l-12.38,5.65a1.25,1.25,0,0,0,0,2.27l4.92,2.27a1.26,1.26,0,0,0,1,0l12.38-5.64a1.26,1.26,0,0,0,0-2.28l-4.92-2.26A1.22,1.22,0,0,0,197.79,462.2Z"/><path class="cls-10" d="M186,456.78l-12.38,5.65a1.25,1.25,0,0,0,0,2.27l4.92,2.27a1.28,1.28,0,0,0,1,0L192,461.32a1.25,1.25,0,0,0,0-2.27l-4.92-2.27A1.26,1.26,0,0,0,186,456.78Z"/><ellipse class="cls-10" cx="141.27" cy="440.57" rx="24.43" ry="14.6"/><path class="cls-10" d="M130,440.57c0-3.72,5.05-6.74,11.27-6.74s11.27,3,11.27,6.74-5,6.73-11.27,6.73S130,444.29,130,440.57Z"/><path class="cls-10" d="M104.6,439.76c0-.76,1-1.38,2.31-1.38s2.3.62,2.3,1.38-1,1.37-2.3,1.37S104.6,440.52,104.6,439.76Z"/><ellipse class="cls-10" cx="145.6" cy="422.1" rx="2.3" ry="1.38"/><path class="cls-10" d="M139,459.07c0-.76,1-1.37,2.3-1.37s2.31.61,2.31,1.37-1,1.38-2.31,1.38S139,459.83,139,459.07Z"/><ellipse class="cls-10" cx="175.21" cy="441.13" rx="2.3" ry="1.38"/><path class="cls-1" d="M342.73,273.91,94,387.38l160.34,73.85a3.25,3.25,0,0,0,2.68,0L504.41,348.38Z"/><circle class="cls-7" cx="369.03" cy="451.8" r="24.56"/><circle class="cls-7" cx="440.48" cy="490.96" r="17.69"/><circle class="cls-7" cx="409.41" cy="470.55" r="28.17"/><circle class="cls-8" cx="367.38" cy="462.1" r="24.56"/><circle class="cls-8" cx="438.83" cy="501.26" r="17.69"/><circle class="cls-8" cx="407.76" cy="480.85" r="28.17"/><circle class="cls-6" cx="364.37" cy="472.54" r="24.56"/><circle class="cls-6" cx="435.82" cy="511.7" r="17.69"/><circle class="cls-6" cx="404.75" cy="491.29" r="28.17"/><circle class="cls-9" cx="362.72" cy="482.84" r="24.56"/><circle class="cls-9" cx="434.17" cy="522" r="17.69"/><circle class="cls-9" cx="403.1" cy="501.59" r="28.17"/><circle class="cls-6" cx="329.34" cy="499.12" r="28.17"/><circle class="cls-9" cx="327.7" cy="509.42" r="28.17"/><circle class="cls-6" cx="365.19" cy="528.37" r="28.17"/><circle class="cls-9" cx="363.54" cy="538.67" r="28.17"/><circle class="cls-6" cx="403.67" cy="538.57" r="19.69"/><circle class="cls-9" cx="402.52" cy="545.77" r="19.69"/><circle class="cls-6" cx="441.17" cy="534.87" r="19.69"/><circle class="cls-9" cx="440.02" cy="542.07" r="19.69"/><polyline class="cls-14" points="240.24 441.78 244.84 443.89 249.37 441.83"/><polyline class="cls-14" points="133.54 387.17 127.59 389.89 132.92 392.34"/><polyline class="cls-14" points="337.04 298.56 332.45 296.45 327.39 298.75"/><polyline class="cls-14" points="444.1 353.01 449.7 350.45 443.87 347.77"/><g class="cls-15"><path class="cls-10" d="M354.29,251.85l-6.51-3a10.26,10.26,0,0,0-8.52,0L2.52,402.43a2.83,2.83,0,0,0,0,5.15L7.66,410"/></g><circle class="cls-16" cx="116.67" cy="294.26" r="25.86"/><path class="cls-17" d="M91.22,295c-4.8,1.82-7.58,3.64-7.34,5.09.52,3.21,15.66,3.44,33.81.51s32.46-7.92,31.94-11.13c-.24-1.46-3.47-2.31-8.63-2.52"/><circle class="cls-16" cx="83.14" cy="324.76" r="11"/><circle class="cls-16" cx="110.64" cy="351.26" r="9.5"/><polygon class="cls-18" points="106.04 392.34 93.64 387.26 342.64 274.26 342.64 286.26 106.04 392.34"/><polygon class="cls-19" points="491.64 353.26 504.64 348.26 342.64 274.26 342.64 286.26 491.64 353.26"/><path class="cls-10" d="M237.25,129s-6.38.84-7.36,6.65,5.45,11.79-.41,16-14.33,11-14.24,26.06c0,0,4.83-18.67,21.12-19.83s15.3-20.67,15.3-20.67Z"/><path class="cls-10" d="M264.89,144.87l-37.18-21.15L248.48,80a94.55,94.55,0,0,1,34.65-38.17l16.5-10.3a5,5,0,0,1,7.67,4.36l-.4,19.45a94.68,94.68,0,0,1-15.08,49.3Z"/><circle class="cls-20" cx="273.08" cy="88.73" r="13.59"/><path class="cls-20" d="M242.73,97.81s-27.11-8.53-34.9,26.62a2.93,2.93,0,0,0,4.76,2.86c4-3.41,9.49-6.18,15.21-3.23Z"/><path class="cls-20" d="M279.48,118.71s21.19,18.93-5,43.6a2.93,2.93,0,0,1-4.89-2.62c.89-5.19.46-11.33-5-14.73Z"/><path class="cls-20" d="M249,105.47h3a0,0,0,0,1,0,0v41.27a1.51,1.51,0,0,1-1.51,1.51h0a1.51,1.51,0,0,1-1.51-1.51V105.47A0,0,0,0,1,249,105.47Z" transform="translate(95.45 -107.25) rotate(29.62)"/><line class="cls-10" x1="433.03" y1="357.37" x2="434.5" y2="337.25"/><path class="cls-10" d="M420.1,321.76c.36,1,8.87,24.5,11.78,32.54a1.29,1.29,0,0,0,2.34.18l17-30.69"/><path class="cls-10" d="M462.89,99.32l-22.25.45L428.22,269.65h0L428,273c-1.39,16.62-5.63,34.72-6.86,39.72a11.58,11.58,0,0,0,.16,12.23c4.13,6.85,13.92,9.93,21.87,6.87,7-2.7,10.25-9.28,8.07-15.5-.47-6.18-1.55-22.25-1.48-37.11Z"/><g class="cls-21"><path class="cls-10" d="M443.09,326.37c-7.95,3.06-17.74,0-21.88-6.87a13.08,13.08,0,0,1-1.46-3.52,11.83,11.83,0,0,0,1.52,8.94c4.13,6.85,13.92,9.93,21.87,6.87,6.62-2.54,9.86-8.54,8.38-14.43A13.09,13.09,0,0,1,443.09,326.37Z"/></g><path class="cls-10" d="M443.68,335.4c-7.61,2.93-17,0-21-6.55l-.15-.3,1.6,4.44a19.86,19.86,0,0,0,19.75,3.94l1.2-2.17C444.65,335,444.18,335.21,443.68,335.4Z"/><path class="cls-10" d="M433.6,301.21l4.65,1.32a1.69,1.69,0,0,0,2.13-1.49l3.28-44.83a1.68,1.68,0,0,0-1.22-1.73l-4.65-1.32a1.67,1.67,0,0,0-2.12,1.49l-3.28,44.83A1.67,1.67,0,0,0,433.6,301.21Z"/><path class="cls-10" d="M432.39,299.48a1.67,1.67,0,0,0,1.21,1.73l4.65,1.32a1.68,1.68,0,0,0,2.13-1.49l1.16-15.86-7.94-2.25Z"/><path class="cls-10" d="M433.68,300.94l4.56,1.27a1.39,1.39,0,0,0,1.72-.74,4.58,4.58,0,0,0,.17-1.29c0-.49.07-1,.1-1.52.14-2.09.3-4.45.48-7,.33-5.15.71-11.16,1.13-17.6.21-3.21.43-6.54.66-9.92.12-1.69.23-3.39.35-5.1l.18-2.57a1.29,1.29,0,0,0-.12-.89,1.12,1.12,0,0,0-.63-.5l-2.48-.71-1.24-.35a10.38,10.38,0,0,0-1.14-.3,1.07,1.07,0,0,0-1.16.94c-.07.84-.14,1.68-.2,2.51-.27,3.38-.54,6.7-.79,9.92-.53,6.42-1,12.42-1.44,17.57s-.73,9.43-1,12.43c-.05.75-.11,1.42-.15,2a3.18,3.18,0,0,0,0,.74,1.28,1.28,0,0,0,.19.52A1.38,1.38,0,0,0,433.68,300.94Zm-.15.54a1.84,1.84,0,0,1-1.13-.84,1.82,1.82,0,0,1-.28-.74,3.6,3.6,0,0,1,0-.87c0-.58.09-1.26.14-2,.2-3,.5-7.29.85-12.44s.72-11.15,1.13-17.59c.22-3.22.44-6.54.66-9.92.07-.85.13-1.71.19-2.57a2.26,2.26,0,0,1,2.44-2,10.1,10.1,0,0,1,1.34.33l1.24.35,2.49.69a2.33,2.33,0,0,1,1.35,1.05,2.57,2.57,0,0,1,.28,1.6l-.2,2.57q-.19,2.56-.39,5.1c-.27,3.37-.53,6.69-.79,9.91-.52,6.43-1,12.43-1.44,17.57-.2,2.57-.39,4.93-.55,7,0,.52-.08,1-.12,1.51,0,.25,0,.49-.05.72a2.45,2.45,0,0,1-.18.78,2,2,0,0,1-2.45,1.07Z"/><ellipse class="cls-10" cx="451.53" cy="103.56" rx="9.38" ry="11.3" transform="translate(276.76 532.58) rotate(-80.75)"/><path class="cls-10" d="M446.49,90.87c5.52-2.12,12.32,0,15.18,4.77s.72,10.33-4.79,12.45-12.32,0-15.19-4.77S441,93,446.49,90.87Z"/><polygon class="cls-10" points="457.97 97.41 458.78 86.28 447.35 85.13 446.45 97.37 457.97 97.41"/><path class="cls-10" d="M450.42,81.56A6.62,6.62,0,0,1,458.24,84c1.48,2.45.37,5.32-2.47,6.41A6.61,6.61,0,0,1,448,88C446.47,85.53,447.58,82.65,450.42,81.56Z"/><path class="cls-10" d="M449.51,93a6.63,6.63,0,0,1,7.82,2.46c1.47,2.45.37,5.32-2.48,6.41A6.61,6.61,0,0,1,447,99.39C445.56,96.94,446.66,94.07,449.51,93Z"/><path class="cls-10" d="M455,91.12a5.86,5.86,0,1,1,3.43-7.55A5.86,5.86,0,0,1,455,91.12Z"/><circle class="cls-10" cx="452.74" cy="84.09" r="2.58"/><g class="cls-22"><circle class="cls-7" cx="214.37" cy="387.54" r="24.56"/><circle class="cls-7" cx="285.82" cy="426.7" r="17.69"/><circle class="cls-7" cx="254.75" cy="406.29" r="28.17"/><circle class="cls-8" cx="212.72" cy="397.84" r="24.56"/><circle class="cls-8" cx="284.17" cy="437" r="17.69"/><circle class="cls-8" cx="253.1" cy="416.59" r="28.17"/><path class="cls-7" d="M205.64,195.26c-6,9.38-48,48.82-28,79.8s45,44.13,47,67.6-2.34,40.36-68,62.91,69,20.65,86,15,32-29.11,32-77.93-81-51.64-84-88.25S205.64,195.26,205.64,195.26Z"/><path class="cls-8" d="M212.64,185.26c-6,10-48,52-28,85s45,47,47,72-2.34,43-68,67,69,22,86,16,32-31,32-83-81-55-84-94S212.64,185.26,212.64,185.26Z"/><circle class="cls-7" cx="179.34" cy="414.12" r="28.17"/><circle class="cls-8" cx="177.7" cy="424.42" r="28.17"/><circle class="cls-7" cx="215.19" cy="443.37" r="28.17"/><circle class="cls-8" cx="213.54" cy="453.67" r="28.17"/><circle class="cls-7" cx="253.67" cy="453.57" r="19.69"/><circle class="cls-8" cx="252.52" cy="460.77" r="19.69"/><circle class="cls-7" cx="291.17" cy="449.87" r="19.69"/><circle class="cls-8" cx="290.02" cy="457.07" r="19.69"/></g></g></g></svg>